<svg xmlns="http://www.w3.org/2000/svg" xmlns:xlink="http://www.w3.org/1999/xlink" contentStyleType="text/css" data-diagram-type="ACTIVITY" height="1979px" preserveAspectRatio="none" style="width:3522px;height:1979px;background:#FFFFFF;" version="1.1" viewBox="0 0 3522 1979" width="3522px" zoomAndPan="magnify"><?plantuml 1.2026.5?><defs/><g><g class="title" data-source-line="1"><text fill="#000000" font-family="sans-serif" font-size="14" font-weight="700" lengthAdjust="spacing" textLength="319.6279" x="1600.2083" y="32.9951">Online Writing Skills &#8212; Onboarding Flow</text></g><rect fill="#FFFFCC" height="16.6406" rx="2.5" ry="2.5" style="stroke:#FFDD88;stroke-width:3;" width="3491.0444" x="13" y="50.2969"/><text fill="#000000" font-family="monospace" font-size="10" lengthAdjust="spacing" textLength="553.8867" x="20" y="60.9375">This&#160;syntax&#160;is&#160;deprecated,&#160;you&#160;must&#160;add&#160;&lt;&lt;#LightBlue&gt;&gt;&#160;at&#160;the&#160;end&#160;of&#160;the&#160;line,&#160;after&#160;the&#160;';'</text><rect fill="none" height="20.9531" style="stroke:none;stroke-width:1;" width="3475.0444" x="20" y="76.6826"/><rect fill="#F5F7FA" height="1732.9102" style="stroke:#F5F7FA;stroke-width:1;" width="483.167" x="20" y="76.6826"/><ellipse cx="153.5156" cy="112.6357" fill="#222222" rx="10" ry="10" style="stroke:#222222;stroke-width:1;"/><rect fill="#FFFFFF" height="47.9375" rx="12.5" ry="12.5" style="stroke:#444444;stroke-width:0.5;" width="255.0313" x="26" y="142.6357"/><text fill="#000000" font-family="sans-serif" font-size="12" lengthAdjust="spacing" textLength="235.0313" x="36" y="163.7744">Create / choose a writing project folder</text><text fill="#000000" font-family="sans-serif" font-size="12" lengthAdjust="spacing" textLength="188.502" x="59.2646" y="177.7432">(one folder per writing context)</text><rect fill="#FFFFFF" height="47.9375" rx="12.5" ry="12.5" style="stroke:#444444;stroke-width:0.5;" width="249.3125" x="28.8594" y="210.5732"/><text fill="#000000" font-family="sans-serif" font-size="12" lengthAdjust="spacing" textLength="224.6426" x="41.1943" y="231.7119">Make the skills available to the agent</text><text fill="#000000" font-family="sans-serif" font-size="12" lengthAdjust="spacing" textLength="229.3125" x="38.8594" y="245.6807">(clone, marketplace, or plugin source)</text><rect fill="#FFFFFF" height="33.9688" rx="12.5" ry="12.5" style="stroke:#444444;stroke-width:0.5;" width="251.1875" x="27.9219" y="278.5107"/><text fill="#000000" font-family="sans-serif" font-size="12" lengthAdjust="spacing" textLength="231.1875" x="37.9219" y="299.6494">Start the agent from the project folder</text><path d="M266.3613,328.749 L266.3613,352.4482 L246.3613,356.4482 L266.3613,360.4482 L266.3613,384.1475 A0,0 0 0 0 266.3613,384.1475 L498.167,384.1475 A0,0 0 0 0 498.167,384.1475 L498.167,338.749 L488.167,328.749 L266.3613,328.749 A0,0 0 0 0 266.3613,328.749" fill="#FEFFDD" style="stroke:#181818;stroke-width:0.5;"/><path d="M488.167,328.749 L488.167,338.749 L498.167,338.749 L488.167,328.749" fill="#FEFFDD" style="stroke:#181818;stroke-width:0.5;"/><text fill="#000000" font-family="sans-serif" font-size="13" lengthAdjust="spacing" textLength="210.8057" x="272.3613" y="345.8159">Creates &lt;vault&gt;/.online-writing/</text><text fill="#000000" font-family="sans-serif" font-size="13" lengthAdjust="spacing" textLength="196.752" x="279.3882" y="360.9487">on first write &#8212; no manual file</text><text fill="#000000" font-family="sans-serif" font-size="13" lengthAdjust="spacing" textLength="108.3672" x="323.5806" y="376.0815">editing required.</text><rect fill="#FFFFFF" height="47.9375" rx="12.5" ry="12.5" style="stroke:#444444;stroke-width:0.5;" width="185.6914" x="60.6699" y="332.4795"/><text fill="#000000" font-family="sans-serif" font-size="12" lengthAdjust="spacing" textLength="163.957" x="71.5371" y="353.6182">Ask the agent to set up the</text><text fill="#000000" font-family="sans-serif" font-size="12" lengthAdjust="spacing" textLength="165.6914" x="70.6699" y="367.5869">online-writing configuration</text><line style="stroke:#000000;stroke-width:1.5;" x1="20" x2="20" y1="76.6826" y2="1809.5928"/><rect fill="#EEF6EE" height="1732.9102" style="stroke:#EEF6EE;stroke-width:1;" width="1070.5962" x="503.167" y="76.6826"/><rect fill="none" height="164.1719" style="stroke:#000000;stroke-width:1.5;" width="295.1523" x="765.9827" y="394.1475"/><path d="M907.8206,394.1475 L907.8206,403.4443 L897.8206,413.4443 L765.9827,413.4443" fill="none" style="stroke:#000000;stroke-width:1.5;"/><text fill="#000000" font-family="sans-serif" font-size="14" lengthAdjust="spacing" textLength="131.8379" x="768.9827" y="408.1426">(discover-purpose)</text><rect fill="#FFFFFF" height="47.9375" rx="12.5" ry="12.5" style="stroke:#444444;stroke-width:0.5;" width="275.1523" x="775.9827" y="430.4443"/><text fill="#000000" font-family="sans-serif" font-size="12" lengthAdjust="spacing" textLength="255.1523" x="785.9827" y="451.583">Interview: motivation, audience, category,</text><text fill="#000000" font-family="sans-serif" font-size="12" lengthAdjust="spacing" textLength="103.8926" x="861.6125" y="465.5518">POV, style, vision</text><rect fill="#FFFFFF" height="47.9375" rx="12.5" ry="12.5" style="stroke:#444444;stroke-width:0.5;" width="204.4297" x="811.344" y="498.3818"/><text fill="#000000" font-family="sans-serif" font-size="12" lengthAdjust="spacing" textLength="184.4297" x="821.344" y="519.5205">Synthesize Purpose Statement</text><text fill="#000000" font-family="sans-serif" font-size="12" lengthAdjust="spacing" textLength="99.3633" x="863.8772" y="533.4893">+ Decision Filter</text><rect fill="#FFFFFF" height="33.9688" rx="12.5" ry="12.5" style="stroke:#444444;stroke-width:0.5;" width="91.8711" x="867.6233" y="578.3193"/><text fill="#000000" font-family="sans-serif" font-size="12" lengthAdjust="spacing" textLength="71.8711" x="877.6233" y="599.458">purpose.md</text><rect fill="none" height="355.0469" style="stroke:#000000;stroke-width:1.5;" width="540.4063" x="757.9407" y="622.2881"/><path d="M897.8645,622.2881 L897.8645,631.585 L887.8645,641.585 L757.9407,641.585" fill="none" style="stroke:#000000;stroke-width:1.5;"/><text fill="#000000" font-family="sans-serif" font-size="14" lengthAdjust="spacing" textLength="129.9238" x="760.9407" y="636.2832">(discover-buckets)</text><path d="M1069.177,776.7607 L1069.177,832.1592 L1278.3469,832.1592 L1278.3469,786.7607 L1268.3469,776.7607 L1069.177,776.7607" fill="#FEFFDD" style="stroke:#181818;stroke-width:0.5;"/><path d="M1268.3469,776.7607 L1268.3469,786.7607 L1278.3469,786.7607 L1268.3469,776.7607" fill="#FEFFDD" style="stroke:#181818;stroke-width:0.5;"/><text fill="#000000" font-family="sans-serif" font-size="13" lengthAdjust="spacing" textLength="188.1699" x="1075.177" y="793.8276">Reads purpose.md if present</text><text fill="#000000" font-family="sans-serif" font-size="13" lengthAdjust="spacing" textLength="166.3467" x="1086.0886" y="808.9604">(genius zone should align</text><text fill="#000000" font-family="sans-serif" font-size="13" lengthAdjust="spacing" textLength="167.6797" x="1085.4221" y="824.0933">with purpose) &#8212; optional.</text><rect fill="#FFFFFF" height="33.9688" rx="12.5" ry="12.5" style="stroke:#444444;stroke-width:0.5;" width="248.9492" x="789.0842" y="658.585"/><text fill="#000000" font-family="sans-serif" font-size="12" lengthAdjust="spacing" textLength="228.9492" x="799.0842" y="679.7236">List 10-20 expert zones (breadth first)</text><rect fill="#FFFFFF" height="33.9688" rx="12.5" ry="12.5" style="stroke:#444444;stroke-width:0.5;" width="179.4043" x="823.8567" y="712.5537"/><text fill="#000000" font-family="sans-serif" font-size="12" lengthAdjust="spacing" textLength="159.4043" x="833.8567" y="733.6924">Pick the One Big Key Zone</text><rect fill="#FFFFFF" height="47.9375" rx="12.5" ry="12.5" style="stroke:#444444;stroke-width:0.5;" width="224.5508" x="801.2834" y="766.5225"/><text fill="#000000" font-family="sans-serif" font-size="12" lengthAdjust="spacing" textLength="204.5508" x="811.2834" y="787.6611">Overlap with 2-3 secondary zones</text><text fill="#000000" font-family="sans-serif" font-size="12" lengthAdjust="spacing" textLength="139.8164" x="843.6506" y="801.6299">&#8594; find the Genius Zone</text><rect fill="#FFFFFF" height="47.9375" rx="12.5" ry="12.5" style="stroke:#444444;stroke-width:0.5;" width="291.2363" x="767.9407" y="849.46"/><text fill="#000000" font-family="sans-serif" font-size="12" lengthAdjust="spacing" textLength="271.2363" x="777.9407" y="870.5986">Translate genius zone into 3 content buckets</text><text fill="#000000" font-family="sans-serif" font-size="12" lengthAdjust="spacing" textLength="163.2539" x="831.9319" y="884.5674">(General / Niche / Industry)</text><rect fill="#FFFFFF" height="47.9375" rx="12.5" ry="12.5" style="stroke:#444444;stroke-width:0.5;" width="244.332" x="791.3928" y="917.3975"/><text fill="#000000" font-family="sans-serif" font-size="12" lengthAdjust="spacing" textLength="224.332" x="801.3928" y="938.5361">Stress-test: alignment, sustainability,</text><text fill="#000000" font-family="sans-serif" font-size="12" lengthAdjust="spacing" textLength="110.1328" x="858.4924" y="952.5049">specificity, energy</text><rect fill="#FFFFFF" height="47.9375" rx="12.5" ry="12.5" style="stroke:#444444;stroke-width:0.5;" width="223.4551" x="801.8313" y="997.335"/><text fill="#000000" font-family="sans-serif" font-size="12" lengthAdjust="spacing" textLength="79.2129" x="873.9524" y="1018.4736">expertise.md</text><text fill="#000000" font-family="sans-serif" font-size="12" lengthAdjust="spacing" textLength="203.4551" x="811.8313" y="1032.4424">(all zones, key zone, genius zone)</text><rect fill="#FFFFFF" height="47.9375" rx="12.5" ry="12.5" style="stroke:#444444;stroke-width:0.5;" width="209.123" x="808.9973" y="1065.2725"/><text fill="#000000" font-family="sans-serif" font-size="12" lengthAdjust="spacing" textLength="70.2305" x="878.4436" y="1086.4111">buckets.md</text><text fill="#000000" font-family="sans-serif" font-size="12" lengthAdjust="spacing" textLength="189.123" x="818.9973" y="1100.3799">(buckets + territory statement)</text><polygon fill="#FFF7E6" points="863.3955,1133.21,963.7222,1133.21,975.7222,1145.21,963.7222,1157.21,863.3955,1157.21,851.3955,1145.21,863.3955,1133.21" style="stroke:#C9971C;stroke-width:0.5;stroke-linejoin:miter;stroke-miterlimit:10;"/><text fill="#000000" font-family="sans-serif" font-size="11" lengthAdjust="spacing" textLength="100.3267" x="863.3955" y="1149.0181">Writing language?</text><text fill="#000000" font-family="sans-serif" font-size="11" lengthAdjust="spacing" textLength="39.7192" x="811.6763" y="1142.6157">English</text><text fill="#000000" font-family="sans-serif" font-size="11" lengthAdjust="spacing" textLength="44.2417" x="975.7222" y="1142.6157">German</text><rect fill="none" height="303.1406" style="stroke:#000000;stroke-width:1.5;" width="533.853" x="509.167" y="1167.21"/><path d="M647.1904,1167.21 L647.1904,1176.5068 L637.1904,1186.5068 L509.167,1186.5068" fill="none" style="stroke:#000000;stroke-width:1.5;"/><text fill="#000000" font-family="sans-serif" font-size="14" lengthAdjust="spacing" textLength="128.0234" x="512.167" y="1181.2051">(discover-tonality)</text><path d="M770.54,1295.6631 L770.54,1366.1943 L1023.02,1366.1943 L1023.02,1305.6631 L1013.02,1295.6631 L770.54,1295.6631" fill="#FEFFDD" style="stroke:#181818;stroke-width:0.5;"/><path d="M1013.02,1295.6631 L1013.02,1305.6631 L1023.02,1305.6631 L1013.02,1295.6631" fill="#FEFFDD" style="stroke:#181818;stroke-width:0.5;"/><text fill="#000000" font-family="sans-serif" font-size="13" lengthAdjust="spacing" textLength="217.2549" x="783.6526" y="1312.73">Reads purpose.md + buckets.md</text><text fill="#000000" font-family="sans-serif" font-size="13" lengthAdjust="spacing" textLength="208.6348" x="787.9626" y="1327.8628">to ground examples &#8212; optional.</text><text fill="#000000" font-family="sans-serif" font-size="13" lengthAdjust="spacing" textLength="231.48" x="776.54" y="1342.9956">Loads references/tonality-guide.md</text><text fill="#000000" font-family="sans-serif" font-size="13" lengthAdjust="spacing" textLength="224.2183" x="780.1709" y="1358.1284">for the universal register baseline.</text><rect fill="#FFFFFF" height="47.9375" rx="12.5" ry="12.5" style="stroke:#444444;stroke-width:0.5;" width="241.373" x="519.167" y="1203.5068"/><text fill="#000000" font-family="sans-serif" font-size="12" lengthAdjust="spacing" textLength="217.5938" x="531.0566" y="1224.6455">Interview across 6 voice dimensions</text><text fill="#000000" font-family="sans-serif" font-size="12" lengthAdjust="spacing" textLength="221.373" x="529.167" y="1238.6143">(preferences, comparisons, rewrites)</text><rect fill="#FFFFFF" height="33.9688" rx="12.5" ry="12.5" style="stroke:#444444;stroke-width:0.5;" width="203.2051" x="538.251" y="1286.4443"/><text fill="#000000" font-family="sans-serif" font-size="12" lengthAdjust="spacing" textLength="183.2051" x="548.251" y="1307.583">Register check by writing type</text><rect fill="#FFFFFF" height="33.9688" rx="12.5" ry="12.5" style="stroke:#444444;stroke-width:0.5;" width="207.459" x="536.124" y="1355.4131"/><text fill="#000000" font-family="sans-serif" font-size="12" lengthAdjust="spacing" textLength="187.459" x="546.124" y="1376.5518">Collect 8-10 reference samples</text><rect fill="#FFFFFF" height="33.9688" rx="12.5" ry="12.5" style="stroke:#444444;stroke-width:0.5;" width="190.7246" x="544.4912" y="1416.3818"/><text fill="#000000" font-family="sans-serif" font-size="12" lengthAdjust="spacing" textLength="170.7246" x="554.4912" y="1437.5205">Draft &amp; confirm voice profile</text><rect fill="#FFFFFF" height="47.9375" rx="12.5" ry="12.5" style="stroke:#444444;stroke-width:0.5;" width="198.3477" x="540.6797" y="1504.3193"/><text fill="#000000" font-family="sans-serif" font-size="12" lengthAdjust="spacing" textLength="68.6016" x="605.5527" y="1525.458">tonality.md</text><text fill="#000000" font-family="sans-serif" font-size="12" lengthAdjust="spacing" textLength="178.3477" x="550.6797" y="1539.4268">(agent drafting guidance, EN)</text><rect fill="none" height="234.1719" style="stroke:#000000;stroke-width:1.5;" width="506.7432" x="1063.02" y="1167.21"/><path d="M1144.7495,1167.21 L1144.7495,1176.5068 L1134.7495,1186.5068 L1063.02,1186.5068" fill="none" style="stroke:#000000;stroke-width:1.5;"/><text fill="#000000" font-family="sans-serif" font-size="14" lengthAdjust="spacing" textLength="71.7295" x="1066.02" y="1181.2051">(finde-stil)</text><path d="M1311.5083,1261.1787 L1311.5083,1331.71 L1549.7632,1331.71 L1549.7632,1271.1787 L1539.7632,1261.1787 L1311.5083,1261.1787" fill="#FEFFDD" style="stroke:#181818;stroke-width:0.5;"/><path d="M1539.7632,1261.1787 L1539.7632,1271.1787 L1549.7632,1271.1787 L1539.7632,1261.1787" fill="#FEFFDD" style="stroke:#181818;stroke-width:0.5;"/><text fill="#000000" font-family="sans-serif" font-size="13" lengthAdjust="spacing" textLength="208.4443" x="1321.9136" y="1278.2456">Independent German parallel &#8212;</text><text fill="#000000" font-family="sans-serif" font-size="13" lengthAdjust="spacing" textLength="179.2832" x="1336.4941" y="1293.3784">does NOT read tonality.md.</text><text fill="#000000" font-family="sans-serif" font-size="13" lengthAdjust="spacing" textLength="217.2549" x="1317.5083" y="1308.5112">Reads purpose.md + buckets.md</text><text fill="#000000" font-family="sans-serif" font-size="13" lengthAdjust="spacing" textLength="202.7314" x="1324.77" y="1323.644">(optional). Loads stil-guide.md.</text><rect fill="#FFFFFF" height="47.9375" rx="12.5" ry="12.5" style="stroke:#444444;stroke-width:0.5;" width="220.748" x="1076.8901" y="1203.5068"/><text fill="#000000" font-family="sans-serif" font-size="12" lengthAdjust="spacing" textLength="200.748" x="1086.8901" y="1224.6455">Interview in German across voice</text><text fill="#000000" font-family="sans-serif" font-size="12" lengthAdjust="spacing" textLength="184.0313" x="1095.2485" y="1238.6143">+ German-specific dimensions</text><rect fill="#FFFFFF" height="33.9688" rx="12.5" ry="12.5" style="stroke:#444444;stroke-width:0.5;" width="228.4883" x="1073.02" y="1286.4443"/><text fill="#000000" font-family="sans-serif" font-size="12" lengthAdjust="spacing" textLength="208.4883" x="1083.02" y="1307.583">Collect German reference samples</text><rect fill="#FFFFFF" height="33.9688" rx="12.5" ry="12.5" style="stroke:#444444;stroke-width:0.5;" width="187.7422" x="1093.3931" y="1355.4131"/><text fill="#000000" font-family="sans-serif" font-size="12" lengthAdjust="spacing" textLength="167.7422" x="1103.3931" y="1376.5518">Draft &amp; confirm style profile</text><rect fill="#FFFFFF" height="47.9375" rx="12.5" ry="12.5" style="stroke:#444444;stroke-width:0.5;" width="198.6113" x="1087.9585" y="1436.3818"/><text fill="#000000" font-family="sans-serif" font-size="12" lengthAdjust="spacing" textLength="40.7461" x="1166.8911" y="1457.5205">stil.md</text><text fill="#000000" font-family="sans-serif" font-size="12" lengthAdjust="spacing" textLength="178.6113" x="1097.9585" y="1471.4893">(agent drafting guidance, DE)</text><polygon fill="#FFF7E6" points="913.5588,1558.2568,925.5588,1570.2568,913.5588,1582.2568,901.5588,1570.2568,913.5588,1558.2568" style="stroke:#C9971C;stroke-width:0.5;stroke-linejoin:miter;stroke-miterlimit:10;"/><line style="stroke:#000000;stroke-width:1.5;" x1="503.167" x2="503.167" y1="76.6826" y2="1809.5928"/><rect fill="#FBF1F1" height="1732.9102" style="stroke:#FBF1F1;stroke-width:1;" width="442.9648" x="1573.7632" y="76.6826"/><path d="M1759.8257,1592.2568 L1759.8257,1615.9561 L1739.8257,1619.9561 L1759.8257,1623.9561 L1759.8257,1647.6553 A0,0 0 0 0 1759.8257,1647.6553 L2011.728,1647.6553 A0,0 0 0 0 2011.728,1647.6553 L2011.728,1602.2568 L2001.728,1592.2568 L1759.8257,1592.2568 A0,0 0 0 0 1759.8257,1592.2568" fill="#FEFFDD" style="stroke:#181818;stroke-width:0.5;"/><path d="M2001.728,1592.2568 L2001.728,1602.2568 L2011.728,1602.2568 L2001.728,1592.2568" fill="#FEFFDD" style="stroke:#181818;stroke-width:0.5;"/><text fill="#000000" font-family="sans-serif" font-size="13" lengthAdjust="spacing" textLength="230.9023" x="1765.8257" y="1609.3237">settings.md is created lazily by any</text><text fill="#000000" font-family="sans-serif" font-size="13" lengthAdjust="spacing" textLength="206.3496" x="1778.1021" y="1624.4565">skill on first use when a needed</text><text fill="#000000" font-family="sans-serif" font-size="13" lengthAdjust="spacing" textLength="143.603" x="1809.4753" y="1639.5894">preference is missing.</text><rect fill="#FFFFFF" height="33.9688" rx="12.5" ry="12.5" style="stroke:#444444;stroke-width:0.5;" width="160.0625" x="1579.7632" y="1602.9717"/><text fill="#000000" font-family="sans-serif" font-size="12" lengthAdjust="spacing" textLength="140.0625" x="1589.7632" y="1624.1104">Foundation established</text><line style="stroke:#000000;stroke-width:1.5;" x1="1573.7632" x2="1573.7632" y1="76.6826" y2="1809.5928"/><rect fill="#F5F7FA" height="1732.9102" style="stroke:#F5F7FA;stroke-width:1;" width="1476.4556" x="2016.728" y="76.6826"/><path d="M3218.7554,1682.3584 L3218.7554,1752.8896 L3488.1836,1752.8896 L3488.1836,1692.3584 L3478.1836,1682.3584 L3218.7554,1682.3584" fill="#FEFFDD" style="stroke:#181818;stroke-width:0.5;"/><path d="M3478.1836,1682.3584 L3478.1836,1692.3584 L3488.1836,1692.3584 L3478.1836,1682.3584" fill="#FEFFDD" style="stroke:#181818;stroke-width:0.5;"/><text fill="#000000" font-family="sans-serif" font-size="13" lengthAdjust="spacing" textLength="248.4282" x="3224.7554" y="1699.4253">Production skills read whatever config</text><text fill="#000000" font-family="sans-serif" font-size="13" lengthAdjust="spacing" textLength="231.7339" x="3233.1025" y="1714.5581">exists: purpose, expertise, buckets,</text><text fill="#000000" font-family="sans-serif" font-size="13" lengthAdjust="spacing" textLength="193.8955" x="3252.0217" y="1729.6909">tonality / stil. Missing files are</text><text fill="#000000" font-family="sans-serif" font-size="13" lengthAdjust="spacing" textLength="138.9629" x="3279.488" y="1744.8237">skipped, never block.</text><rect fill="#555555" height="6" rx="2.5" ry="2.5" style="stroke:#555555;stroke-width:1;" width="1186.0273" x="2022.728" y="1667.6553"/><rect fill="#FFFFFF" height="33.9688" rx="12.5" ry="12.5" style="stroke:#444444;stroke-width:0.5;" width="211.6953" x="2034.728" y="1700.6396"/><text fill="#000000" font-family="sans-serif" font-size="12" lengthAdjust="spacing" textLength="191.6953" x="2044.728" y="1721.7783">(ideate) &#8212; find &amp; tag post ideas</text><rect fill="#FFFFFF" height="47.9375" rx="12.5" ry="12.5" style="stroke:#444444;stroke-width:0.5;" width="200.0762" x="2256.4233" y="1693.6553"/><text fill="#000000" font-family="sans-serif" font-size="12" lengthAdjust="spacing" textLength="178.377" x="2267.2729" y="1714.7939">(create-post) / (create-draft) /</text><text fill="#000000" font-family="sans-serif" font-size="12" lengthAdjust="spacing" textLength="180.0762" x="2266.4233" y="1728.7627">(create-medium-post) &#8212; draft</text><rect fill="#FFFFFF" height="33.9688" rx="12.5" ry="12.5" style="stroke:#444444;stroke-width:0.5;" width="263.3047" x="2466.4995" y="1700.6396"/><text fill="#000000" font-family="sans-serif" font-size="12" lengthAdjust="spacing" textLength="243.3047" x="2476.4995" y="1721.7783">(improve-writing) / (rewrite-de) &#8212; revise</text><rect fill="#FFFFFF" height="33.9688" rx="12.5" ry="12.5" style="stroke:#444444;stroke-width:0.5;" width="201.125" x="2739.8042" y="1700.6396"/><text fill="#000000" font-family="sans-serif" font-size="12" lengthAdjust="spacing" textLength="181.125" x="2749.8042" y="1721.7783">(diagnose) / (rate) &#8212; evaluate</text><rect fill="#FFFFFF" height="33.9688" rx="12.5" ry="12.5" style="stroke:#444444;stroke-width:0.5;" width="245.8262" x="2950.9292" y="1700.6396"/><text fill="#000000" font-family="sans-serif" font-size="12" lengthAdjust="spacing" textLength="225.8262" x="2960.9292" y="1721.7783">(distill) / (tldr) &#8212; repurpose long-form</text><rect fill="#555555" height="6" rx="2.5" ry="2.5" style="stroke:#555555;stroke-width:1;" width="1186.0273" x="2022.728" y="1761.5928"/><ellipse cx="2615.7417" cy="1798.5928" fill="none" rx="11" ry="11" style="stroke:#222222;stroke-width:1;"/><ellipse cx="2615.7417" cy="1798.5928" fill="#222222" rx="6" ry="6" style="stroke:#222222;stroke-width:1;"/><line style="stroke:#000000;stroke-width:1.5;" x1="2016.728" x2="2016.728" y1="76.6826" y2="1809.5928"/><line style="stroke:#000000;stroke-width:1.5;" x1="3493.1836" x2="3493.1836" y1="76.6826" y2="1809.5928"/><line style="stroke:#444444;stroke-width:1;" x1="153.5156" x2="153.5156" y1="122.6357" y2="142.6357"/><polygon fill="#444444" points="149.5156,132.6357,153.5156,142.6357,157.5156,132.6357,153.5156,136.6357" style="stroke:#444444;stroke-width:1;stroke-linejoin:miter;stroke-miterlimit:10;"/><line style="stroke:#444444;stroke-width:1;" x1="153.5156" x2="153.5156" y1="190.5732" y2="210.5732"/><polygon fill="#444444" points="149.5156,200.5732,153.5156,210.5732,157.5156,200.5732,153.5156,204.5732" style="stroke:#444444;stroke-width:1;stroke-linejoin:miter;stroke-miterlimit:10;"/><line style="stroke:#444444;stroke-width:1;" x1="153.5156" x2="153.5156" y1="258.5107" y2="278.5107"/><polygon fill="#444444" points="149.5156,268.5107,153.5156,278.5107,157.5156,268.5107,153.5156,272.5107" style="stroke:#444444;stroke-width:1;stroke-linejoin:miter;stroke-miterlimit:10;"/><line style="stroke:#444444;stroke-width:1;" x1="153.5156" x2="153.5156" y1="312.4795" y2="332.4795"/><polygon fill="#444444" points="149.5156,322.4795,153.5156,332.4795,157.5156,322.4795,153.5156,326.4795" style="stroke:#444444;stroke-width:1;stroke-linejoin:miter;stroke-miterlimit:10;"/><line style="stroke:#444444;stroke-width:1;" x1="913.5588" x2="913.5588" y1="478.3818" y2="498.3818"/><polygon fill="#444444" points="909.5588,488.3818,913.5588,498.3818,917.5588,488.3818,913.5588,492.3818" style="stroke:#444444;stroke-width:1;stroke-linejoin:miter;stroke-miterlimit:10;"/><line style="stroke:#444444;stroke-width:1;" x1="913.5588" x2="913.5588" y1="546.3193" y2="578.3193"/><polygon fill="#444444" points="909.5588,568.3193,913.5588,578.3193,917.5588,568.3193,913.5588,572.3193" style="stroke:#444444;stroke-width:1;stroke-linejoin:miter;stroke-miterlimit:10;"/><line style="stroke:#444444;stroke-width:1;" x1="913.5588" x2="913.5588" y1="692.5537" y2="712.5537"/><polygon fill="#444444" points="909.5588,702.5537,913.5588,712.5537,917.5588,702.5537,913.5588,706.5537" style="stroke:#444444;stroke-width:1;stroke-linejoin:miter;stroke-miterlimit:10;"/><line style="stroke:#444444;stroke-width:1;" x1="913.5588" x2="913.5588" y1="746.5225" y2="766.5225"/><polygon fill="#444444" points="909.5588,756.5225,913.5588,766.5225,917.5588,756.5225,913.5588,760.5225" style="stroke:#444444;stroke-width:1;stroke-linejoin:miter;stroke-miterlimit:10;"/><line style="stroke:#444444;stroke-width:1;" x1="913.5588" x2="913.5588" y1="814.46" y2="849.46"/><polygon fill="#444444" points="909.5588,839.46,913.5588,849.46,917.5588,839.46,913.5588,843.46" style="stroke:#444444;stroke-width:1;stroke-linejoin:miter;stroke-miterlimit:10;"/><line style="stroke:#444444;stroke-width:1;" x1="913.5588" x2="913.5588" y1="897.3975" y2="917.3975"/><polygon fill="#444444" points="909.5588,907.3975,913.5588,917.3975,917.5588,907.3975,913.5588,911.3975" style="stroke:#444444;stroke-width:1;stroke-linejoin:miter;stroke-miterlimit:10;"/><line style="stroke:#444444;stroke-width:1;" x1="913.5588" x2="913.5588" y1="612.2881" y2="658.585"/><polygon fill="#444444" points="909.5588,648.585,913.5588,658.585,917.5588,648.585,913.5588,652.585" style="stroke:#444444;stroke-width:1;stroke-linejoin:miter;stroke-miterlimit:10;"/><line style="stroke:#444444;stroke-width:1;" x1="913.5588" x2="913.5588" y1="965.335" y2="997.335"/><polygon fill="#444444" points="909.5588,987.335,913.5588,997.335,917.5588,987.335,913.5588,991.335" style="stroke:#444444;stroke-width:1;stroke-linejoin:miter;stroke-miterlimit:10;"/><line style="stroke:#444444;stroke-width:1;" x1="913.5588" x2="913.5588" y1="1045.2725" y2="1065.2725"/><polygon fill="#444444" points="909.5588,1055.2725,913.5588,1065.2725,917.5588,1055.2725,913.5588,1059.2725" style="stroke:#444444;stroke-width:1;stroke-linejoin:miter;stroke-miterlimit:10;"/><line style="stroke:#444444;stroke-width:1;" x1="639.8535" x2="639.8535" y1="1251.4443" y2="1286.4443"/><polygon fill="#444444" points="635.8535,1276.4443,639.8535,1286.4443,643.8535,1276.4443,639.8535,1280.4443" style="stroke:#444444;stroke-width:1;stroke-linejoin:miter;stroke-miterlimit:10;"/><line style="stroke:#444444;stroke-width:1;" x1="639.8535" x2="639.8535" y1="1320.4131" y2="1355.4131"/><polygon fill="#444444" points="635.8535,1345.4131,639.8535,1355.4131,643.8535,1345.4131,639.8535,1349.4131" style="stroke:#444444;stroke-width:1;stroke-linejoin:miter;stroke-miterlimit:10;"/><line style="stroke:#444444;stroke-width:1;" x1="639.8535" x2="639.8535" y1="1389.3818" y2="1416.3818"/><polygon fill="#444444" points="635.8535,1406.3818,639.8535,1416.3818,643.8535,1406.3818,639.8535,1410.3818" style="stroke:#444444;stroke-width:1;stroke-linejoin:miter;stroke-miterlimit:10;"/><line style="stroke:#444444;stroke-width:1;" x1="639.8535" x2="639.8535" y1="1450.3506" y2="1504.3193"/><polygon fill="#444444" points="635.8535,1494.3193,639.8535,1504.3193,643.8535,1494.3193,639.8535,1498.3193" style="stroke:#444444;stroke-width:1;stroke-linejoin:miter;stroke-miterlimit:10;"/><line style="stroke:#444444;stroke-width:1;" x1="1187.2642" x2="1187.2642" y1="1251.4443" y2="1286.4443"/><polygon fill="#444444" points="1183.2642,1276.4443,1187.2642,1286.4443,1191.2642,1276.4443,1187.2642,1280.4443" style="stroke:#444444;stroke-width:1;stroke-linejoin:miter;stroke-miterlimit:10;"/><line style="stroke:#444444;stroke-width:1;" x1="1187.2642" x2="1187.2642" y1="1320.4131" y2="1355.4131"/><polygon fill="#444444" points="1183.2642,1345.4131,1187.2642,1355.4131,1191.2642,1345.4131,1187.2642,1349.4131" style="stroke:#444444;stroke-width:1;stroke-linejoin:miter;stroke-miterlimit:10;"/><line style="stroke:#444444;stroke-width:1;" x1="1187.2642" x2="1187.2642" y1="1389.3818" y2="1436.3818"/><polygon fill="#444444" points="1183.2642,1426.3818,1187.2642,1436.3818,1191.2642,1426.3818,1187.2642,1430.3818" style="stroke:#444444;stroke-width:1;stroke-linejoin:miter;stroke-miterlimit:10;"/><line style="stroke:#444444;stroke-width:1;" x1="851.3955" x2="639.8535" y1="1145.21" y2="1145.21"/><line style="stroke:#444444;stroke-width:1;" x1="639.8535" x2="639.8535" y1="1145.21" y2="1203.5068"/><polygon fill="#444444" points="635.8535,1193.5068,639.8535,1203.5068,643.8535,1193.5068,639.8535,1197.5068" style="stroke:#444444;stroke-width:1;stroke-linejoin:miter;stroke-miterlimit:10;"/><line style="stroke:#444444;stroke-width:1;" x1="975.7222" x2="1187.2642" y1="1145.21" y2="1145.21"/><line style="stroke:#444444;stroke-width:1;" x1="1187.2642" x2="1187.2642" y1="1145.21" y2="1203.5068"/><polygon fill="#444444" points="1183.2642,1193.5068,1187.2642,1203.5068,1191.2642,1193.5068,1187.2642,1197.5068" style="stroke:#444444;stroke-width:1;stroke-linejoin:miter;stroke-miterlimit:10;"/><line style="stroke:#444444;stroke-width:1;" x1="639.8535" x2="639.8535" y1="1552.2568" y2="1570.2568"/><line style="stroke:#444444;stroke-width:1;" x1="639.8535" x2="901.5588" y1="1570.2568" y2="1570.2568"/><polygon fill="#444444" points="891.5588,1566.2568,901.5588,1570.2568,891.5588,1574.2568,895.5588,1570.2568" style="stroke:#444444;stroke-width:1;stroke-linejoin:miter;stroke-miterlimit:10;"/><line style="stroke:#444444;stroke-width:1;" x1="1187.2642" x2="1187.2642" y1="1484.3193" y2="1570.2568"/><line style="stroke:#444444;stroke-width:1;" x1="1187.2642" x2="925.5588" y1="1570.2568" y2="1570.2568"/><polygon fill="#444444" points="935.5588,1566.2568,925.5588,1570.2568,935.5588,1574.2568,931.5588,1570.2568" style="stroke:#444444;stroke-width:1;stroke-linejoin:miter;stroke-miterlimit:10;"/><line style="stroke:#444444;stroke-width:1;" x1="913.5588" x2="913.5588" y1="1113.21" y2="1133.21"/><polygon fill="#444444" points="909.5588,1123.21,913.5588,1133.21,917.5588,1123.21,913.5588,1127.21" style="stroke:#444444;stroke-width:1;stroke-linejoin:miter;stroke-miterlimit:10;"/><line style="stroke:#444444;stroke-width:1;" x1="2140.5757" x2="2140.5757" y1="1673.6553" y2="1700.6396"/><polygon fill="#444444" points="2136.5757,1690.6396,2140.5757,1700.6396,2144.5757,1690.6396,2140.5757,1694.6396" style="stroke:#444444;stroke-width:1;stroke-linejoin:miter;stroke-miterlimit:10;"/><line style="stroke:#444444;stroke-width:1;" x1="2356.4614" x2="2356.4614" y1="1673.6553" y2="1693.6553"/><polygon fill="#444444" points="2352.4614,1683.6553,2356.4614,1693.6553,2360.4614,1683.6553,2356.4614,1687.6553" style="stroke:#444444;stroke-width:1;stroke-linejoin:miter;stroke-miterlimit:10;"/><line style="stroke:#444444;stroke-width:1;" x1="2598.1519" x2="2598.1519" y1="1673.6553" y2="1700.6396"/><polygon fill="#444444" points="2594.1519,1690.6396,2598.1519,1700.6396,2602.1519,1690.6396,2598.1519,1694.6396" style="stroke:#444444;stroke-width:1;stroke-linejoin:miter;stroke-miterlimit:10;"/><line style="stroke:#444444;stroke-width:1;" x1="2840.3667" x2="2840.3667" y1="1673.6553" y2="1700.6396"/><polygon fill="#444444" points="2836.3667,1690.6396,2840.3667,1700.6396,2844.3667,1690.6396,2840.3667,1694.6396" style="stroke:#444444;stroke-width:1;stroke-linejoin:miter;stroke-miterlimit:10;"/><line style="stroke:#444444;stroke-width:1;" x1="3073.8423" x2="3073.8423" y1="1673.6553" y2="1700.6396"/><polygon fill="#444444" points="3069.8423,1690.6396,3073.8423,1700.6396,3077.8423,1690.6396,3073.8423,1694.6396" style="stroke:#444444;stroke-width:1;stroke-linejoin:miter;stroke-miterlimit:10;"/><line style="stroke:#444444;stroke-width:1;" x1="2140.5757" x2="2140.5757" y1="1734.6084" y2="1761.5928"/><polygon fill="#444444" points="2136.5757,1751.5928,2140.5757,1761.5928,2144.5757,1751.5928,2140.5757,1755.5928" style="stroke:#444444;stroke-width:1;stroke-linejoin:miter;stroke-miterlimit:10;"/><line style="stroke:#444444;stroke-width:1;" x1="2356.4614" x2="2356.4614" y1="1741.5928" y2="1761.5928"/><polygon fill="#444444" points="2352.4614,1751.5928,2356.4614,1761.5928,2360.4614,1751.5928,2356.4614,1755.5928" style="stroke:#444444;stroke-width:1;stroke-linejoin:miter;stroke-miterlimit:10;"/><line style="stroke:#444444;stroke-width:1;" x1="2598.1519" x2="2598.1519" y1="1734.6084" y2="1761.5928"/><polygon fill="#444444" points="2594.1519,1751.5928,2598.1519,1761.5928,2602.1519,1751.5928,2598.1519,1755.5928" style="stroke:#444444;stroke-width:1;stroke-linejoin:miter;stroke-miterlimit:10;"/><line style="stroke:#444444;stroke-width:1;" x1="2840.3667" x2="2840.3667" y1="1734.6084" y2="1761.5928"/><polygon fill="#444444" points="2836.3667,1751.5928,2840.3667,1761.5928,2844.3667,1751.5928,2840.3667,1755.5928" style="stroke:#444444;stroke-width:1;stroke-linejoin:miter;stroke-miterlimit:10;"/><line style="stroke:#444444;stroke-width:1;" x1="3073.8423" x2="3073.8423" y1="1734.6084" y2="1761.5928"/><polygon fill="#444444" points="3069.8423,1751.5928,3073.8423,1761.5928,3077.8423,1751.5928,3073.8423,1755.5928" style="stroke:#444444;stroke-width:1;stroke-linejoin:miter;stroke-miterlimit:10;"/><line style="stroke:#444444;stroke-width:1;" x1="2615.7417" x2="2615.7417" y1="1767.5928" y2="1787.5928"/><polygon fill="#444444" points="2611.7417,1777.5928,2615.7417,1787.5928,2619.7417,1777.5928,2615.7417,1781.5928" style="stroke:#444444;stroke-width:1;stroke-linejoin:miter;stroke-miterlimit:10;"/><line style="stroke:#444444;stroke-width:1;" x1="153.5156" x2="153.5156" y1="380.417" y2="392.9307"/><line style="stroke:#444444;stroke-width:1;" x1="153.5156" x2="913.5588" y1="392.9307" y2="392.9307"/><line style="stroke:#444444;stroke-width:1;" x1="913.5588" x2="913.5588" y1="392.9307" y2="430.4443"/><polygon fill="#444444" points="909.5588,420.4443,913.5588,430.4443,917.5588,420.4443,913.5588,424.4443" style="stroke:#444444;stroke-width:1;stroke-linejoin:miter;stroke-miterlimit:10;"/><line style="stroke:#444444;stroke-width:1;" x1="913.5588" x2="913.5588" y1="1582.2568" y2="1587.2568"/><line style="stroke:#444444;stroke-width:1;" x1="913.5588" x2="1659.7944" y1="1587.2568" y2="1587.2568"/><line style="stroke:#444444;stroke-width:1;" x1="1659.7944" x2="1659.7944" y1="1587.2568" y2="1602.9717"/><polygon fill="#444444" points="1655.7944,1592.9717,1659.7944,1602.9717,1663.7944,1592.9717,1659.7944,1596.9717" style="stroke:#444444;stroke-width:1;stroke-linejoin:miter;stroke-miterlimit:10;"/><line style="stroke:#444444;stroke-width:1;" x1="1659.7944" x2="1659.7944" y1="1636.9404" y2="1652.6553"/><line style="stroke:#444444;stroke-width:1;" x1="1659.7944" x2="2615.7417" y1="1652.6553" y2="1652.6553"/><line style="stroke:#444444;stroke-width:1;" x1="2615.7417" x2="2615.7417" y1="1652.6553" y2="1667.6553"/><polygon fill="#444444" points="2611.7417,1657.6553,2615.7417,1667.6553,2619.7417,1657.6553,2615.7417,1661.6553" style="stroke:#444444;stroke-width:1;stroke-linejoin:miter;stroke-miterlimit:10;"/><text fill="#000000" font-family="sans-serif" font-size="18" lengthAdjust="spacing" textLength="118.3623" x="202.4023" y="93.3906">Project setup</text><text fill="#000000" font-family="sans-serif" font-size="18" lengthAdjust="spacing" textLength="300.7178" x="888.1062" y="93.3906">Discovery &#8212; build the foundation</text><text fill="#000000" font-family="sans-serif" font-size="18" lengthAdjust="spacing" textLength="158.4229" x="1716.0342" y="93.3906">Foundation ready</text><text fill="#000000" font-family="sans-serif" font-size="18" lengthAdjust="spacing" textLength="345.7178" x="2582.0969" y="93.3906">Production &#8212; consume the foundation</text><g class="legend" data-source-line="12"><rect fill="#DDDDDD" height="124.0781" rx="7.5" ry="7.5" style="stroke:#000000;stroke-width:1;" width="409.8408" x="3088.2036" y="1831.5928"/><text fill="#000000" font-family="sans-serif" font-size="14" font-weight="700" lengthAdjust="spacing" textLength="57.9209" x="3264.1636" y="1849.5879">Legend</text><text fill="#000000" font-family="sans-serif" font-size="14" lengthAdjust="spacing" textLength="10.1035" x="3288.0723" y="1865.8848">--</text><text fill="#000000" font-family="sans-serif" font-size="14" lengthAdjust="spacing" textLength="226.3516" x="3179.9482" y="1882.1816">() skill      &#8212; runnable agent skill</text><text fill="#000000" font-family="sans-serif" font-size="14" lengthAdjust="spacing" textLength="399.2871" x="3093.4805" y="1898.4785">[#LightBlue] &#8212; config artifact in &lt;vault&gt;/.online-writing/</text><text fill="#000000" font-family="sans-serif" font-size="14" lengthAdjust="spacing" textLength="10.1035" x="3288.0723" y="1914.7754">--</text><text fill="#000000" font-family="sans-serif" font-size="14" lengthAdjust="spacing" textLength="389.7236" x="3098.2622" y="1931.0723">Discovery is order-flexible. Each skill works standalone:</text><text fill="#000000" font-family="sans-serif" font-size="14" lengthAdjust="spacing" textLength="399.8408" x="3093.2036" y="1947.3691">if an input config is missing, the skill proceeds without it.</text></g><?plantuml-src bLRRZjis47tNLmmI8B0HQpURj4dZ12dsOXT1Dzb5DcY15dsW9LfcJP4gITdhT0FqgHzGz0lp9Jr3IRRsahGrOCCIXtCvvyoGGGKjwSnePIJzw5HGfg2BfTBQqwS__iRAp0gNyzkfjkiayKjbAk54INuXShlcbRdGNlPM3fspwsEhhQFxNyLFRp6NSr7hy5vUXaEj2bDA4oZ3ZtGzAv45jL9XGxydH4SYMnRErYPldKxZXrUiowMx7eheH8dIclokRSycJti6_Tt7pvy_EpXEFYPQ5jBav5In2B1zENjr6j-yt9-zmdEQucSm9CyWKVmmKAusHio0fIYueBWAmv_ldxAV8rtBNw9TPirS5IHSK7CKIShGonK3ycf_pqOQqdL3mtuNx4JvpAwasv3o55DEvrfUAaJReud85cqkQ-kMddmG9XVQ6Zd6NZKdOH2agaCN6avAvJqYZ2WiPBkvSZQJClUqLc5XOQt2NeAg6pIIvEh-zElfi-dXrRcplqeaxcMegwi4uLn8niTEYY1fdxA5jHueK5i5EuxsSwkHUJ90Okr_gl3jp91SW2I6BvBn6x6KkymyYPLGEc8RR7mV8Ku66HSvebAufGoL5XaUm6IbwmAeUbkxJBA_2qvnjv7cpfRnyNfgi3pqovuTeg58gYj-brmdfmMpTY8eQruangBwJZ8D6FvBn5f3S-LyYFNBg0nZKOgfXSQAbh2HUHFAoTzgvMGU-I2En7HC9jEdaydLJXpiOrOhdSSIvgpxcDnLabGiD_vFzmPvko6jQbU1gk6zs6FZrzo1AoNNOoejcY_k7P6eSoKDGvkXfiAwpGZMvsS_ZA2qZSRxbV8H0lYus1Z4zkg3fFF6Em7y8Bd7iVwGJcGMhMcgT638FoQx1Xct6UsL-OlFv3ohCt3jsvolWKxqJWheT-U4nLyvwPlWQ5gmgcfF7rY27Y87L897K5nbtNURXn5CMt5ueVUOYmvvL7cgmDl1e_Jn8vANq7287ZqDPk0zXvV8x30YSgwoHb9dY7c4xljURkWdcCVLCzIaHTN4Vfm-WTwWgro0pUWIDf_-_0l-J4FgTqq1s_tldJ1US-FrIrC6odtIT1Hat6B6KmlxfOF0zkcjoXRShgzDNllWDass5m5m-HJQ3UC66cOEJCD6ACmtfJ6JMG2-0fDpbV4ZiTTYSuFC1XeLcKW60YCcbZIYfMog6_MJHlpUtZRbkBFz3_50C6WMA91dN2CgR4l0yg0xkRGmHOtk_NR8U1aQJ4oXbLyCaVATWWfCC8fe5NLBKtUewY7rqcjiW7Tpq40GegoqzBS4n9zJowwSd4l7BUNtk-XfKQjSxlpDCSQOxzee9Ed1c9C5L8TvEHDUyZ1fVFPasMzX79_EUazFQMLL9YbN08lxpZUDKEroG5_R4j0eZzKHuiI1vACUuF9T5nToWP9dc-t03fjAjaOuGJNFqM_IWqUxyiWtKBH69qxC0pre1gShsymmWddQiSr7V7iQwB1fK1aq8pbd9noT0HDnB4tU8bU92mZBss62tkIQkqUcFYZzUPBH1h82c1oZyS8k85gfcSdMAhSWzktPU-8-frw2U_z3AuDE5SEzLX2SsbO1N-OLvrgRNijmH35QFMnNqgurUwpVuAbryL-PYdF-2qnn_l_6qic4MJAvciUhnD7qO7fmDTsUKH7HpLKoxht24CAXZ-QL-Otp5QSok_TnndlAud6Re_a_ABrXZGgpORDuiTcUj3KaikQX8CZWfYCvuLqZzAv5ry_PtRKdhxEOM7kDytKfRnsrwDmbJz81s4HIpK4Iv_S32WAt8OjCU0rWiosk6XYiSKTJHieMGqpcxZc2YHSCR_kgnCsWBbjB3X1jRZbK9JXRRQyTqMdRtsdUfkOaZczvQskkH67YGSXxjeN8bT0rdkwmPn7eQ1vqxZhdRIiGRcf5YZrb5055bAvHseEtlVN57bil46t5uoTUj_WWlaGeF-wQR4JRSsRKzHgVJrrp8g4eJthJS1llLhXIEja8fAfaFe8UECPCsspP9zy7M_q3?></g></svg>